<svg xmlns="http://www.w3.org/2000/svg" xmlns:xlink="http://www.w3.org/1999/xlink" version="1.1" x="0px" y="0px" width="25px" height="30px" viewBox="0 0 25 30" enable-background="new 0 0 25 30" xml:space="preserve"><path fill-rule="evenodd" clip-rule="evenodd" fill="#9F9F9F" d="M20.496 19.855c-0.001 0.685-0.469 1.256-1.136 1.4 c-0.098 0.021-0.2 0.029-0.301 0.029c-4.374 0.001-8.748 0.001-13.121 0.001c-0.793 0-1.433-0.616-1.435-1.41 c-0.006-2.344-0.003-4.689-0.003-7.034c0-0.014 0.003-0.028 0.003-0.044c0.189 0.2 0.4 0.3 0.6 0.5 c0.369 0.3 0.8 0.5 1.1 0.795c1.42 1 2.8 2 4.3 2.981c0.451 0.3 0.9 0.6 1.5 0.7 c0.456 0.1 0.9 0.1 1.351-0.052c0.607-0.203 1.133-0.55 1.652-0.917c1.404-0.989 2.817-1.967 4.228-2.947 c0.391-0.271 0.795-0.524 1.135-0.862c0.067-0.067 0.136-0.132 0.21-0.206c0.002 0 0 0 0 0.1 C20.496 15.2 20.5 17.5 20.5 19.855z M20.297 11.061c-0.284 0.622-0.734 1.108-1.288 1.5 c-1.379 0.964-2.761 1.922-4.144 2.881c-0.456 0.316-0.913 0.632-1.377 0.938c-0.238 0.157-0.501 0.271-0.787 0.3 c-0.334 0.058-0.642-0.035-0.937-0.181c-0.444-0.219-0.841-0.513-1.244-0.797c-1.133-0.796-2.271-1.586-3.405-2.379 c-0.432-0.301-0.873-0.589-1.288-0.911c-0.501-0.389-0.908-0.866-1.176-1.446c-0.283-0.612-0.155-1.397 0.295-1.881 C5.18 8.8 5.5 8.7 5.8 8.72c0.05-0.004 0.102-0.003 0.151-0.003c2.175 0 4.3 0 6.5 0c2.186 0 4.4 0 6.6 0 c0.695 0 1.3 0.5 1.4 1.146C20.551 10.3 20.5 10.7 20.3 11.061z"/></svg>