<svg xmlns="http://www.w3.org/2000/svg" xmlns:xlink="http://www.w3.org/1999/xlink" version="1.1" x="0px" y="0px" width="215px" height="130px" viewBox="0 0 215 130" enable-background="new 0 0 215 130" xml:space="preserve"><g><path fill="#0D2240" d="M102.16 45.337H57.722v65.352c0 0 13.213-9.521 26.125-9.521c5.748 0 18.313-4.103 18.313-17.886 C102.16 69.5 102.2 45.3 102.2 45.337z"/><path fill="#0D2240" d="M10.005 45.337h44.436v65.352c0 0-13.213-9.521-26.125-9.521c-5.746 0-18.311-4.103-18.311-17.886 C10.005 69.5 10 45.3 10 45.337z"/><path fill="#E2231A" d="M102.16 0v42.306H10.486V0H102.16z"/><path fill="#929288" d="M87.001 104.524L87 104.31c0-0.603 1.463-1.114 3.566-1.351v-0.013 c12.568-1.393 19.236-12.162 19.236-12.162s-2.576 9.562-5.027 11.907c-2.457 2.4 7.551-0.625 7.551-0.625 c-2.869 4.848-7.617 9.274-16.34 11.373C95.986 113.4 87.3 105.3 87 104.524z"/><path fill="#766661" d="M91.996 105.926c2.652-0.018 3.2 0.3 3.4 0.38c0.793 0.5 0.7 1.4 0.7 1.4l-0.221 6.1 c0 0-8.662 0.265-8.674 0.273L87 104.31C87.197 104.8 89.2 105.9 92 105.926z"/><path fill="#929288" d="M25.324 104.524l0.002-0.215c0-0.603-1.465-1.114-3.566-1.351v-0.013 C9.193 101.6 2.5 90.8 2.5 90.784s2.578 9.6 5 11.907C10.005 105 0 102.1 0 102.1 c2.871 4.8 7.6 9.3 16.3 11.373C16.339 113.4 25 105.3 25.3 104.524z"/><path fill="#766661" d="M20.332 105.926c-2.654-0.018-3.246 0.306-3.373 0.38c-0.793 0.461-0.701 1.4-0.701 1.4l0.221 6.1 c0 0 8.7 0.3 8.7 0.273l0.174-9.724C25.13 104.8 23.1 105.9 20.3 105.926z"/><path fill="#0D2240" d="M96.07 107.706c-0.01 0.015-1.521 2.758-8.908 6.338c-7.387 3.581-17.654 6.31-30.832 6.3 c-13.18 0-23.721-2.504-31.178-6.32c-7.455-3.818-8.889-6.323-8.895-6.327l0.141 10.421C21.652 125 37.8 130 56.3 130 s34.359-5.001 39.607-11.873L96.07 107.706z"/><path fill="#231F20" d="M113.332 39.496c1.016 0 2.031-0.006 3 0.035c-0.109-0.283-0.07-0.675 0-0.962 c-1.057 0.198-2.16 0.211-3.232 0.216c-0.303 0.001-0.605 0-0.908 0h-0.424c-0.006-0.076-0.008-0.152-0.012-0.229 c-0.016-0.444-0.018-0.889-0.02-1.334c-0.004-1.146 0.01-2.292 0.01-3.439c1.363 0 2.754-0.001 4.1 0.2 c-0.061-0.347-0.061-0.684 0-1.029c-1.361 0.134-2.742 0.166-4.109 0.166c0-1.465-0.014-2.923 0.059-4.387 c1.482 0 3 0.1 4.4 0.218c-0.059-0.335-0.057-0.679 0-1.015c-2.01 0.104-4.016 0.104-6.025 0 c0.031 0.7 0.1 1.4 0.1 2.166c0.135 3.2 0 6.324-0.086 9.473C111.285 39.5 112.3 39.5 113.3 39.496z M119.335 39.582c1.006 0.3 2.2 0.2 3.209-0.13c1.004-0.388 1.777-1.166 2.127-2.186c0.33-0.96 0.318-2.16-0.355-2.969 c-0.773-0.928-1.949-1.188-2.992-1.683c-0.516-0.243-0.998-0.526-1.373-0.962c-0.334-0.371-0.42-0.907-0.395-1.389 c0.064-1.177 1.035-1.963 2.182-1.963c0.551 0 1.1 0.2 1.4 0.608c0.205 0.2 0.3 0.5 0.5 0.7 c0.025 0.1 0.1 0.3 0.1 0.251h0.176c0.09-0.495 0.219-0.979 0.455-1.426c-0.371-0.304-0.811-0.528-1.275-0.653 c-0.908-0.247-2.004-0.207-2.881 0.143c-0.877 0.349-1.586 1.009-1.869 1.923c-0.25 0.8-0.229 1.9 0.3 2.6 c0.67 1 1.8 1.4 2.8 1.831c0.529 0.2 1.1 0.5 1.5 0.869c0.387 0.4 0.6 0.8 0.6 1.3 c0.055 1.131-0.594 2.21-1.717 2.508c-1.096 0.292-2.305-0.126-2.982-1.031c0.029 0 0 0.067-0.018-0.023 c-0.064-0.087-0.047-0.063-0.016-0.023c-0.119-0.17-0.229-0.348-0.318-0.537c-0.047-0.095-0.133-0.061-0.234-0.061 c-0.025 0.27-0.055 0.54-0.109 0.804c-0.023 0.124-0.055 0.246-0.094 0.366c-0.029 0.1-0.156 0.307-0.07 0.4 C118.386 39.2 118.9 39.4 119.3 39.582z M118.853 37.972c-0.012-0.014-0.023-0.031-0.033-0.046 c0.004 0 0 0 0 0.023C118.839 38 118.8 38 118.9 37.972z M128.853 38.8 c0.955 0.6 2.1 0.9 3.2 0.936c0.631 0 1.25-0.019 1.869-0.135c0.541-0.101 1.109-0.229 1.602-0.478 c0.082-0.038 0.076-0.035 0.045-0.02c0.143-0.063 0.432-0.182 0.449-0.308c0.02-0.124 0.037-0.25 0.057-0.375 c0.025-0.177 0.162-0.529 0.02-0.661c-0.703 0.566-1.49 1.04-2.369 1.275c-0.891 0.24-1.916 0.161-2.783-0.143 c-1.695-0.593-2.633-2.167-2.873-3.886c-0.295-2.104 0.041-4.71 1.949-5.983c0.936-0.625 2.191-0.86 3.295-0.683 c0.561 0.1 1.1 0.3 1.6 0.621c0.244 0.2 0.5 0.3 0.7 0.517c0.088 0.1 0.2 0.2 0.3 0.2 c0.074 0.1 0.1 0.1 0.2 0.04c0.082-0.437 0.123-0.937 0.355-1.325c-2.023-0.899-4.477-1.091-6.553-0.25 c-1.984 0.803-3.215 2.646-3.414 4.751C126.171 35.2 126.9 37.5 128.9 38.809z M135.585 39.1 c-0.018 0.008-0.031 0.015-0.045 0.02C135.402 39.2 135.5 39.1 135.6 39.113z M147.043 38.3 c0.721-0.862 1.047-1.969 1.109-3.077c0.068-1.256 0.063-2.52 0.111-3.776c0.047-1.185 0.096-2.372 0.203-3.553 c-0.404 0.113-0.789 0.089-1.197 0c0.072 0.6 0.1 1.2 0.1 1.796c0.004 0.3 0 0.3 0 0.2 c0.01 0.7 0 1.4 0 2.14c0.004 1 0 2.014-0.047 3.012c-0.082 0.998-0.275 2.058-0.928 2.9 c-0.553 0.681-1.369 1.036-2.232 1.112c-1.057 0.092-2.23-0.048-3.068-0.757c-0.915-0.773-1.147-2.117-1.18-3.253 c-0.064-2.359 0.008-4.73 0.186-7.084c-0.535 0.108-1.072 0.101-1.611 0c0.066 1.2 0.1 2.4 0.1 3.6 c0.01 1.219-0.104 2.437-0.078 3.655c0.02 1 0.2 2 0.7 2.825c1.008 1.7 3.3 1.9 5.1 1.7 C145.318 39.6 146.3 39.1 147 38.299z M147.35 29.867c0-0.059 0-0.118 0-0.178 C147.34 29.1 147.3 29.7 147.3 29.867z M151.572 39.531c1.023-0.041 2.047-0.035 3.072-0.035 c1.016 0 2.029-0.006 3 0.035c-0.078-0.293-0.082-0.67 0-0.962c-1.053 0.201-2.158 0.211-3.227 0.2 c-0.305 0.001-0.605 0-0.908 0h-0.428c-0.002-0.076-0.006-0.152-0.008-0.229c-0.014-0.444-0.016-0.889-0.021-1.334 c-0.012-1.146 0.01-2.292 0.01-3.439c1.367 0 2.8 0 4.1 0.158c-0.066-0.342-0.066-0.688 0-1.029 c-1.361 0.134-2.742 0.166-4.111 0.166c0-0.718-0.014-1.437-0.016-2.155c0-0.378 0.006-0.758 0.023-1.136 c0.01-0.188 0.021-0.376 0.027-0.565c0.002-0.101 0.006-0.2 0.01-0.3c0.002-0.052 0.002-0.102 0.004-0.153 c-0.023-0.077 0.002-0.104 0.08-0.077c1.461 0 2.9 0.1 4.4 0.218c-0.057-0.335-0.057-0.679 0-1.015 c-2.01 0.104-4.02 0.104-6.029 0c0.033 0.7 0.1 1.4 0.1 2.166c0.066 1.4 0 2.8 0 4.2 C151.701 36 151.7 37.8 151.6 39.531z M166.256 38.569c-0.373 0.049-0.746 0.091-1.117 0.1 c-0.588 0.051-1.178 0.068-1.768 0.078c-0.33 0.005-0.66 0.009-0.992 0.011c-0.156 0.001-0.311 0.001-0.467 0 c-0.078 0-0.16 0-0.238 0c-0.115 0-0.078-0.025-0.082-0.125c-0.021-1.133-0.029-2.268-0.037-3.401 c-0.01-1.196-0.016-2.393-0.008-3.589c0.01-1.26 0.076-2.52 0.131-3.777c-0.559 0.096-1.1 0.102-1.658 0 c0.037 0.7 0.1 1.5 0.1 2.195c0.008 0.2 0 0.2 0 0.201c0.098 3.1 0.1 6.171-0.102 9.2 c1.016-0.039 2.033-0.035 3.049-0.035c1.063 0 2.127-0.007 3.2 0.035C166.158 39.2 166.2 38.9 166.3 38.569z M160.121 30.288c-0.004-0.067-0.006-0.135-0.008-0.201C160.09 29.6 160.1 30.2 160.1 30.288z M175.922 38.9 c0.043 0.1 0.1 0.3 0.1 0.38c0.033 0.1 0 0.3 0.2 0.268c0.557-0.066 1.168-0.062 1.7 0 c-0.447-0.843-0.811-1.734-1.191-2.608c-0.447-1.012-0.877-2.034-1.313-3.051c-0.879-2.059-1.721-4.134-2.588-6.198 c-0.074 0-0.252-0.037-0.314 0c-0.115 0.264-0.229 0.528-0.346 0.792c-0.229 0.524-0.457 1.049-0.688 1.6 c-0.465 1.06-0.934 2.118-1.4 3.177c-0.934 2.112-1.883 4.218-2.855 6.313c0.416-0.044 0.832-0.045 1.2 0 c0.09-0.316 0.191-0.632 0.297-0.944c0.395-1.172 0.852-2.323 1.311-3.47c0.045-0.113 0.141-0.078 0.254-0.082 c0.074-0.002 0.148-0.003 0.223-0.006c0.145-0.004 0.293-0.005 0.439-0.007c0.295-0.005 0.586-0.014 0.879-0.015 c0.629-0.002 1.3 0 1.9 0.018c0.18 0 0.4 0 0.5 0.016c0.133 0 0.2 0.2 0.2 0.3 c0.113 0.3 0.2 0.6 0.3 0.839c0.24 0.6 0.5 1.2 0.7 1.772C175.707 38.3 175.8 38.6 175.9 38.875z M170.449 34.263c0.613-1.434 1.23-2.868 1.846-4.302c0.621 1.4 1.2 2.9 1.9 4.3 C172.922 34.3 171.7 34.3 170.4 34.263z M111.914 59.862c-0.092-1.757-0.131-3.511-0.131-5.269 c1.166 0.1 2.5 0.1 3.59-0.307c0.992-0.371 1.904-1.101 2.191-2.159c0.275-1.008 0.178-2.274-0.607-3.038 c-0.777-0.789-2.09-0.909-3.141-0.863c-0.584 0.025-1.17 0.061-1.756 0.081c-0.598 0.021-1.201-0.031-1.799-0.085 c0.029 0.7 0.1 1.5 0.1 2.197c0.137 3.1 0.1 6.305-0.086 9.442C110.812 59.8 111.4 59.8 111.9 59.862z M111.783 48.856h1.439c0.871 0 2 0 2.5 0.813c0.313 0.4 0.4 1 0.4 1.518c0 0.529-0.084 1.072-0.359 1.5 c-0.588 0.977-1.721 1.3-2.803 1.3c-0.17 0-0.338-0.008-0.506-0.022c-0.066-0.006-0.691-0.069-0.691-0.117V48.856z M125.541 60.1 c1.129-0.041 2.287-0.28 3.273-0.854c0.926-0.54 1.66-1.367 2.113-2.337c0.48-1.03 0.631-2.193 0.563-3.322 c-0.07-1.102-0.387-2.185-1.014-3.1c-1.33-1.934-3.729-2.601-5.975-2.435c-1.125 0.084-2.244 0.393-3.189 1 c-0.904 0.597-1.592 1.452-2.004 2.455c0.078-0.189 0.154-0.374 0 0.001c-0.152 0.375-0.076 0.2 0 0 c-0.416 1.015-0.525 2.144-0.438 3.229c0.088 1.1 0.4 2.1 1 2.997C121.179 59.5 123.4 60.2 125.5 60.076z M123.089 59.088c-2.145-0.959-2.703-3.474-2.574-5.609c0.064-1.073 0.326-2.173 0.947-3.067c0.635-0.914 1.6-1.478 2.686-1.686 c1.123-0.213 2.379-0.086 3.4 0.47c0.957 0.5 1.6 1.4 1.9 2.443c0.338 1 0.4 2 0.3 3 c-0.057 0.978-0.279 1.958-0.781 2.807C127.869 59.5 125.1 60 123.1 59.088z M133.816 50.2 c-0.002-0.086 0 0.2 0 0.312c-0.002-0.041-0.002-0.081-0.002-0.122C133.822 50.4 133.8 50.3 133.8 50.23z M138.775 59.03c-0.582 0.048-1.164 0.063-1.748 0.074c-0.32 0.007-0.641 0.011-0.961 0.014c-0.152 0.001-0.305 0.003-0.457 0 c-0.076 0.001-0.152 0.001-0.229 0.001c-0.115 0-0.08-0.028-0.08-0.125c-0.014-1.135-0.035-2.268-0.043-3.403 c-0.014-2.46 0.01-4.912 0.127-7.37c-0.564 0.097-1.088 0.097-1.652 0c0.027 0.7 0.1 1.3 0.1 2 c0.002 0 0 0.1 0 0.19c0.008 0.3 0 0.2 0 0.122c0.109 3.1 0 6.221-0.096 9.3 c1.016-0.035 2.031-0.03 3.049-0.03c1.063 0 2.125-0.009 3.2 0.03c-0.104-0.336-0.088-0.628 0-0.965 C139.572 59 139.2 59 138.8 59.03z M142.283 50.624c-0.004-0.067-0.004-0.136-0.006-0.204 C142.248 49.8 142.3 50.6 142.3 50.624z M142.182 48.223c0.033 0.7 0.1 1.5 0.1 2.2 c0.004 0.1 0 0.2 0 0.204c0.096 3.1 0.1 6.167-0.102 9.238c0.551-0.041 1.104-0.04 1.7 0 c-0.031-0.634-0.061-1.267-0.086-1.9c-0.139-3.24-0.057-6.503 0.086-9.74C143.268 48.3 142.8 48.3 142.2 48.223z M145.691 49.292c1.189-0.173 2.412-0.184 3.613-0.184c0.01 0.3 0 0.6 0 0.931c0.074 3.3 0 6.554-0.105 9.8 c0.551-0.04 1.104-0.04 1.7 0c-0.061-1.452-0.133-2.901-0.133-4.356v-2.874c0-1.175 0.014-2.35 0.049-3.524 c1.203 0 2.4 0 3.6 0.184c-0.102-0.376-0.088-0.692 0-1.069c-2.912 0.095-5.813 0.095-8.725 0 C145.789 48.6 145.8 48.9 145.7 49.292z M149.305 49.108C149.02 49.1 149.3 50.3 149.3 49.108L149.305 49.108z M158.941 47.358l1.205-0.771c0.363-0.232 0.727-0.465 1.09-0.697c0.221-0.14 0.506-0.313 0.613-0.559 c0.164-0.377-0.076-0.815-0.51-0.815c-0.402 0-0.686 0.339-0.949 0.604c-0.287 0.289-0.57 0.578-0.855 0.9 c-0.48 0.487-0.961 0.973-1.441 1.459C158.385 47.4 158.7 47.5 158.9 47.358z M159.156 59.1 c-0.301 0.002-0.602 0.001-0.902 0.001h-0.424c-0.004-0.077-0.008-0.154-0.008-0.23c-0.02-0.446-0.023-0.892-0.023-1.336 c-0.01-1.145 0.008-2.288 0.008-3.429c1.365 0 2.754-0.021 4.1 0.147c-0.074-0.338-0.074-0.693 0-1.033 c-1.365 0.135-2.744 0.168-4.113 0.168c0-0.718-0.01-1.436-0.01-2.154c0-0.745 0.041-1.487 0.061-2.231 c1.488 0 3 0.1 4.4 0.217c-0.064-0.337-0.063-0.681 0-1.018c-2.014 0.097-4.018 0.097-6.029 0 c0.029 0.7 0.1 1.4 0.1 2.172c0.107 3.2 0 6.317-0.09 9.468c1.023-0.038 2.047-0.03 3.072-0.03 c1.012 0 2.025-0.008 3 0.03c-0.08-0.305-0.066-0.658 0-0.965C161.342 59.1 160.2 59.1 159.2 59.121z M167.543 49.4 c0.93-0.641 2.178-0.878 3.287-0.725c0.586 0.1 1.1 0.3 1.6 0.628c0.252 0.2 0.5 0.3 0.7 0.5 c0.096 0.1 0.2 0.2 0.3 0.271c0.049 0.1 0.1 0 0.1 0.004c0.074-0.436 0.133-0.932 0.352-1.321 c-1.988-0.919-4.506-1.099-6.553-0.256c-0.951 0.393-1.801 1.036-2.395 1.883c-0.59 0.843-0.92 1.852-1.02 2.9 c-0.217 2.2 0.5 4.6 2.4 5.819c0.959 0.6 2.1 0.9 3.3 0.971c0.635 0 1.254-0.019 1.877-0.132 c0.545-0.099 1.096-0.228 1.6-0.468c-0.051 0.024-0.088 0 0.014-0.004c0.109-0.054 0.461-0.188 0.482-0.327l0.059-0.375 c0.029-0.186 0.164-0.52 0.025-0.665c-0.738 0.558-1.477 1.019-2.375 1.27c-0.895 0.25-1.912 0.159-2.783-0.139 c-1.672-0.572-2.609-2.134-2.863-3.818C165.346 53.3 165.7 50.7 167.5 49.397z M176.564 48 c-0.068-0.026-0.197 0-0.271 0c0.059 0.9 0.1 1.7 0.1 2.599c0.002 1 0 2.039-0.01 3.1 c-0.02 1.137-0.066 2.275-0.129 3.411c-0.057 0.932-0.092 1.865-0.213 2.79c0.402-0.04 0.813-0.042 1.2 0 c-0.088-0.749-0.072-1.519-0.1-2.272c-0.029-0.857-0.051-1.719-0.051-2.576c0-1.416 0.012-2.83 0.043-4.246 c1.402 1.5 2.8 3 4.2 4.483c-0.666-0.708 0.3 0.4 0.6 0.621c-0.125-0.135-0.25-0.272-0.375-0.409 c0.426 0.5 0.5 0.5 0.4 0.409c0.672 0.7 1.3 1.5 2 2.213c0.379 0.4 0.8 0.9 1.1 1.3 c0.174 0.2 0.4 0.4 0.5 0.606c0.078 0.1 0.1 0.1 0.2 0.11h0.139c0-2.041-0.047-4.082-0.047-6.123 c0-0.982 0.053-1.966 0.104-2.946c0.051-0.931 0.086-1.863 0.162-2.791c-0.379 0.106-0.732 0.106-1.113 0 c0.168 3 0.1 6 0.1 8.944c-1.547-1.531-3.014-3.151-4.488-4.75c-0.799-0.861-1.592-1.726-2.383-2.589 c-0.385-0.418-0.77-0.835-1.158-1.253C176.916 48.4 176.7 48.2 176.6 48.004z M189.137 59.9 c0.551-0.04 1.104-0.04 1.7 0c-0.025-0.634-0.053-1.267-0.082-1.9c-0.066-1.469-0.049-2.941-0.049-4.412 c0-1.778 0.063-3.551 0.131-5.328c-0.563 0.096-1.088 0.096-1.652 0c0.033 0.7 0.1 1.5 0.1 2.2 c0.059 1.4 0 2.8 0 4.174C189.27 56.4 189.2 58.1 189.1 59.862z M196.709 49.4 c0.938-0.624 2.197-0.852 3.303-0.677c0.582 0.1 1.1 0.3 1.6 0.654c0.24 0.2 0.5 0.3 0.7 0.5 c0.088 0.1 0.2 0.2 0.2 0.245c0.047 0.1 0.1 0 0.1 0c0.07-0.432 0.121-0.941 0.352-1.321 c-1.994-0.915-4.504-1.1-6.555-0.256c-0.953 0.393-1.799 1.036-2.391 1.883c-0.607 0.865-0.938 1.894-1.029 2.9 c-0.188 2.2 0.5 4.5 2.5 5.785c0.971 0.6 2.1 0.9 3.3 0.939c1.119 0 2.35-0.118 3.377-0.593 c-0.039 0.019-0.055 0 0.035-0.014c0.111-0.055 0.467-0.189 0.486-0.327l0.063-0.375c0.023-0.153 0.045-0.306 0.068-0.459 c0.018-0.116 0.033-0.123-0.049-0.206c-0.744 0.573-1.521 1.051-2.436 1.286c-0.898 0.232-1.918 0.135-2.785-0.177 c-1.662-0.602-2.566-2.177-2.805-3.862C194.469 53.2 194.8 50.6 196.7 49.361z M212.609 57.3 c-0.434-0.996-0.861-1.995-1.283-2.994c-0.883-2.081-1.738-4.172-2.609-6.256h-0.314c-0.061 0-0.285 0.643-0.32 0.7 c-0.229 0.526-0.459 1.051-0.689 1.576c-0.461 1.061-0.928 2.118-1.395 3.176c-0.941 2.138-1.91 4.264-2.893 6.4 c0.232-0.023 0.467-0.032 0.703-0.03c0.115 0 0.2 0 0.4 0.014c0.076 0 0.2 0.1 0.213-0.031 c0.098-0.33 0.203-0.659 0.313-0.985c0.398-1.165 0.848-2.315 1.314-3.455c1.24-0.042 2.486-0.051 3.727-0.018 c0.184 0 0.4 0 0.5 0.018c0.051 0.1 0.1 0.3 0.2 0.402c0.111 0.3 0.2 0.6 0.3 0.8 c0.238 0.6 0.5 1.2 0.7 1.769c0.115 0.3 0.2 0.6 0.3 0.876c0.043 0.1 0.1 0.2 0.1 0.4 c0.021 0.1 0 0.1 0.1 0.166c0.025 0.1 0.1 0 0.1 0.038c0.537-0.048 1.119-0.047 1.7 0 C213.338 59 213 58.1 212.6 57.254z M206.314 54.593c0.619-1.432 1.232-2.865 1.846-4.297l1.873 4.3 C208.791 54.7 207.6 54.6 206.3 54.593z M119.25 68.56c0.176 3 0.1 6 0.1 8.9 c-1.535-1.544-3.004-3.157-4.486-4.752c-0.797-0.86-1.59-1.728-2.387-2.59c-0.383-0.42-0.768-0.836-1.152-1.253 c-0.176-0.188-0.35-0.378-0.525-0.567c-0.066-0.027-0.193 0-0.268 0c0.096 1.9 0.1 3.8 0 5.7 c-0.02 1.136-0.066 2.276-0.133 3.414c-0.057 0.929-0.076 1.865-0.211 2.785c0.402-0.04 0.811-0.042 1.2 0 c-0.08-0.749-0.068-1.517-0.092-2.271c-0.025-0.857-0.031-1.716-0.049-2.577c-0.029-1.414 0.006-2.83 0.043-4.245 c1.471 1.6 2.9 3.1 4.4 4.7c0.471 0.5 0.5 0.5 0.3 0.365c0.697 0.8 1.4 1.5 2.1 2.3 c0.385 0.4 0.8 0.9 1.1 1.301c0.178 0.2 0.4 0.4 0.5 0.613c0.074 0.1 0.2 0.1 0.3 0.1 c0-2.025-0.051-4.05-0.051-6.075c0-1.93 0.146-3.86 0.266-5.786C119.98 68.7 119.6 68.7 119.2 68.56z M116.107 76.2 c-0.111-0.121-0.223-0.245-0.336-0.365C114.773 74.7 115.8 75.8 116.1 76.169z M130.062 74.5 c-0.865-2.065-1.717-4.136-2.584-6.201h-0.314c-0.059 0-0.285 0.641-0.318 0.721c-0.229 0.522-0.459 1.048-0.689 1.6 c-0.465 1.062-0.932 2.118-1.4 3.177c-0.949 2.135-1.91 4.265-2.887 6.385c0.395-0.038 0.793-0.038 1.186-0.004 c0.105 0 0.096-0.104 0.123-0.196c0.021-0.071 0.043-0.142 0.064-0.214c0.049-0.155 0.1-0.311 0.15-0.465 c0.393-1.169 0.838-2.323 1.305-3.464c0.059-0.141 0.057-0.144 0.209-0.148c0.074-0.003 0.148-0.004 0.223-0.004 c0.145-0.005 0.293-0.008 0.438-0.011c0.295-0.004 0.588-0.012 0.883-0.012c0.627-0.003 1.3 0 1.9 0 c0.182 0 0.4 0 0.5 0.012c0.1 0 0.143-0.029 0.2 0.069c0.025 0.1 0.1 0.1 0.1 0.2 c0.109 0.3 0.2 0.6 0.3 0.84c0.248 0.6 0.5 1.2 0.7 1.776c0.209 0.5 0.4 1.1 0.6 1.6 c0.299-0.036 0.6-0.027 0.9-0.027c0.295 0 0.592-0.009 0.9 0.027c-0.445-0.841-0.809-1.729-1.186-2.604 C130.935 76.6 130.5 75.6 130.1 74.544z M125.074 74.934c0.615-1.433 1.23-2.87 1.846-4.305 c0.625 1.4 1.2 2.9 1.9 4.305C127.552 75 126.3 74.9 125.1 74.934z M136.687 69.7 c0.926-0.643 2.178-0.885 3.287-0.726c0.58 0.1 1.1 0.3 1.6 0.629c0.244 0.1 0.5 0.3 0.7 0.5 c0.088 0.1 0.2 0.2 0.3 0.248c0.07 0.1 0.1 0.1 0.2 0.044c0.088-0.437 0.131-0.934 0.359-1.322 c-2.004-0.901-4.493-1.103-6.555-0.258c-0.955 0.392-1.801 1.033-2.393 1.884c-0.59 0.845-0.922 1.85-1.02 2.9 c-0.215 2.2 0.5 4.6 2.5 5.855c0.961 0.6 2.1 0.9 3.2 0.936c1.137 0.1 2.407-0.104 3.446-0.597 c-0.045 0.021-0.072 0 0.021-0.011c0.109-0.053 0.467-0.189 0.488-0.326c0.02-0.125 0.039-0.248 0.057-0.373 c0.025-0.153 0.047-0.307 0.07-0.458c0.02-0.113 0.035-0.123-0.049-0.205c-0.717 0.558-1.48 1.031-2.364 1.3 c-0.898 0.243-1.912 0.159-2.789-0.14c-1.67-0.571-2.609-2.134-2.861-3.817C134.486 73.7 134.8 71 136.7 69.733z M145.131 68.56c0.029 0.7 0.1 1.4 0.1 2.118c-0.018-0.346 0 0.1 0 0.239c-0.002-0.056-0.004-0.108-0.006-0.162 c0.008 0.2 0 0.2 0 0.162c0.105 3.1 0 6.193-0.104 9.28c0.553-0.038 1.107-0.04 1.7 0 c-0.029-0.631-0.061-1.263-0.084-1.896c-0.121-3.245-0.059-6.5 0.084-9.741C146.217 68.6 145.7 68.6 145.1 68.56z M149.486 71.839C149.789 71.1 149.2 72.6 149.5 71.839L149.486 71.839z M160.654 70.8 c-1.324-1.944-3.732-2.596-5.977-2.434c-1.127 0.082-2.244 0.39-3.191 1.014c-0.904 0.596-1.596 1.456-2 2.5 c-0.418 1.009-0.525 2.135-0.441 3.217c0.082 1 0.4 2 1 2.907c1.242 1.9 3.5 2.5 5.6 2.5 c1.137-0.033 2.295-0.261 3.295-0.824c0.939-0.528 1.672-1.34 2.141-2.309c0.496-1.029 0.648-2.193 0.588-3.324 C161.602 72.8 161.3 71.7 160.7 70.8z M160.002 74.998c-0.057 0.979-0.27 1.958-0.777 2.8 c-0.555 0.931-1.441 1.591-2.488 1.866c-1.123 0.296-2.404 0.238-3.471-0.244c-2.152-0.973-2.691-3.461-2.572-5.607 c0.061-1.074 0.324-2.169 0.947-3.065c0.629-0.912 1.598-1.485 2.68-1.689c1.121-0.213 2.389-0.093 3.4 0.5 c0.938 0.5 1.6 1.4 1.9 2.392c-0.051-0.146-0.086-0.251 0 0.054c0.105 0.3 0.1 0.2 0 0.1 C159.996 73 160.1 74 160 74.998z M159.666 71.977c-0.006-0.02-0.012-0.035-0.02-0.054 c0.014 0 0 0.1 0 0.111C159.68 72 159.7 72 159.7 71.977z M169.008 75.4 c0.072 0.1 0.4 0.5 0.7 0.719c-0.086-0.091-0.17-0.188-0.256-0.278C169.283 75.7 169.1 75.5 169 75.363z M172.895 68.56c0.18 3 0.1 6 0.1 8.945c-1.535-1.544-3.004-3.155-4.482-4.752c-0.795-0.86-1.588-1.73-2.383-2.59 c-0.387-0.417-0.771-0.836-1.158-1.253c-0.172-0.188-0.346-0.378-0.523-0.567c-0.066-0.027-0.195 0-0.27 0 c0.047 0.9 0 1.7 0 2.594c0.004 1 0 2.041-0.006 3.062c-0.021 1.138-0.068 2.276-0.137 3.4 c-0.053 0.929-0.078 1.863-0.207 2.785c0.404-0.04 0.814-0.04 1.2 0c-0.057-0.335-0.039-0.69-0.057-1.03 c-0.02-0.411-0.029-0.826-0.041-1.241c-0.02-0.857-0.039-1.716-0.051-2.577c-0.016-1.414-0.002-2.83 0.047-4.245 c1.332 1.4 2.7 2.8 4 4.26c-0.049-0.053 0 0 0.4 0.44c0.545 0.6 0.5 0.5 0.3 0.3 c0.705 0.8 1.4 1.5 2.1 2.312c0.383 0.4 0.8 0.9 1.1 1.3c0.182 0.2 0.4 0.4 0.5 0.6 c0.078 0.1 0.1 0.1 0.2 0.111h0.139c0-2.025-0.057-4.05-0.057-6.075c0-1.928 0.145-3.863 0.273-5.786 C173.629 68.7 173.3 68.7 172.9 68.56z M183.707 74.544c-0.875-2.062-1.723-4.134-2.584-6.201 c-0.074 0-0.252-0.036-0.314 0c-0.117 0.264-0.23 0.528-0.348 0.791c-0.23 0.525-0.459 1.049-0.688 1.6 c-0.457 1.036-0.914 2.071-1.375 3.105c-0.947 2.135-1.902 4.267-2.885 6.385c0.418-0.04 0.838-0.038 1.3 0 c0.082-0.306 0.178-0.607 0.279-0.908c0.393-1.159 0.84-2.3 1.297-3.435c0.057-0.143 0.057-0.144 0.209-0.148 c0.074-0.003 0.148-0.004 0.223-0.004c0.146-0.005 0.291-0.008 0.439-0.011c0.293-0.004 0.582-0.012 0.875-0.012 c0.629-0.003 1.3 0 1.9 0.015c0.184 0 0.4 0 0.6 0.012c0.098 0 0.143-0.029 0.2 0.1 c0.025 0.1 0.1 0.1 0.1 0.202c0.109 0.3 0.2 0.6 0.3 0.84c0.242 0.6 0.5 1.2 0.7 1.8 c0.209 0.5 0.4 1.1 0.6 1.604c0.574-0.067 1.215-0.069 1.8 0c-0.434-0.848-0.809-1.729-1.186-2.604 C184.578 76.6 184.1 75.6 183.7 74.544z M178.723 74.934c0.617-1.433 1.23-2.87 1.844-4.305 c0.629 1.4 1.3 2.9 1.9 4.305C181.201 75 180 74.9 178.7 74.934z M193.061 79.4 c-0.578 0.051-1.16 0.065-1.742 0.076c-0.32 0.004-0.641 0.008-0.959 0.008c-0.154 0.003-0.305 0.003-0.457 0 c-0.076 0-0.156 0-0.232 0c-0.113 0-0.078-0.026-0.078-0.123c-0.018-1.135-0.031-2.27-0.041-3.405 c-0.01-1.196-0.025-2.392-0.01-3.588c0.014-1.258 0.078-2.518 0.133-3.776c-0.57 0.081-1.082 0.081-1.652 0 c0.027 0.7 0.1 1.5 0.1 2.195c0.066 1.4 0 2.8 0 4.194c0 1.753-0.053 3.499-0.127 5.2 c1.014-0.034 2.027-0.027 3.041-0.027c1.064 0 2.129-0.011 3.2 0.027c-0.104-0.338-0.092-0.622 0-0.965 C193.859 79.3 193.5 79.3 193.1 79.365z"/><rect x="13.9" y="88.9" fill="#766661" width="36.6" height="2.1"/><g><path fill="#DDD499" d="M50.535 87.537V61.263c0 0-1.154 1.562-2.863 0.847c-8.125-3.424-15.465 0.606-15.465 0.6 s-6.834-3.955-15.445-0.606c-1.498 0.578-2.836-0.839-2.836-0.839v26.267H50.535z"/><path fill="#929288" d="M50.535 85.049c0 0-0.49 1.097-1.906 1.097c-2.66 0-10.252-4.979-16.406 0.546h-0.014 c-7.701-5.508-14.064-0.735-16.725-0.735c-1.342 0-1.492-0.749-1.559-0.892c-0.006-0.007 0-0.016 0-0.016v3.869h18.283h0.014 h18.313V85.049z"/></g><path fill="#DDD499" d="M23.716 121.079l1.973 0.846l0.289-0.667l-1.285-0.563l0.412-0.95l1.283 0.559l0.287-0.664l-1.287-0.552 l0.285-0.649l1.283 0.556l0.289-0.672l-1.961-0.854L23.716 121.079z M29.994 121.428c-0.186-0.416-0.498-0.77-0.688-1.184 c-0.119-0.258 0.082-0.514 0.363-0.398c0.244 0.1 0.4 0.3 0.4 0.576l0.68-0.298c-0.211-0.513-0.568-0.968-1.16-1.015 c-0.584-0.045-1.115 0.392-1.092 0.991c0.018 0.5 0.3 0.9 0.6 1.304c0.127 0.2 0.3 0.4 0.3 0.7 c0.014 0.31-0.316 0.415-0.57 0.35c-0.227-0.082-0.377-0.312-0.447-0.703l-0.715 0.161c0.109 0.8 0.8 1.4 1.6 1.3 c0.334-0.064 0.621-0.287 0.764-0.595C30.226 122.2 30.2 121.8 30 121.428C29.958 121.3 30.1 121.6 30 121.4 z M32.121 121.012c0.779-0.431 1.6 0 2 0.73l0.639-0.341c-0.396-0.811-1.244-1.34-2.15-1.282 c-0.896 0.057-1.623 0.648-1.852 1.515c-0.215 0.8 0 1.7 0.7 2.21c0.787 0.6 1.8 0.5 2.6 0.046l-0.35-0.643 c-0.682 0.402-1.6 0.409-2.09-0.308C31.236 122.3 31.5 121.4 32.1 121.012C32.435 120.8 31.8 121.2 32.1 121.012z M35.4 120.797l-0.848 3.843l0.721 0.163l0.85-3.844L35.4 120.797z M38.796 122.243l0.146-0.713l-2.113-0.407l-0.736 3.9 l2.1 0.402l0.141-0.726l-1.383-0.263l0.205-1.017l1.373 0.271l0.135-0.706l-1.379-0.271l0.139-0.699L38.796 122.243z M41.443 124.542l-1.275-2.809l-0.709-0.105l-0.586 3.885l0.742 0.109l0.381-2.547l1.279 2.803l0.707 0.101l0.59-3.885 l-0.744-0.115L41.443 124.542z M42.863 122.861l0.686 0.089l-0.363 3.177l0.754 0.081l0.367-3.174l0.715 0.079l0.076-0.738 l-2.156-0.239L42.863 122.861z M45.107 126.33l0.738 0.072l0.367-3.916l-0.744-0.07L45.107 126.33z M48.125 122.64l-1.764 3.8 l0.771 0.057l0.373-0.789l1.6 0.108l0.256 0.828l0.77 0.052l-1.248-4.029L48.125 122.64z M47.837 125.018l0.6-1.314l0.432 1.4 L47.837 125.018z M54.332 124.347l-1.314-0.012l0.021-1.479l-0.766-0.008l-0.045 3.933l0.758 0.006l0.021-1.728l1.314 0 l-0.023 1.732l0.756 0.006l0.047-3.938l-0.748-0.004L54.332 124.347z M57.705 122.739c-1.178 0.012-2.055 1.06-1.99 2.2 c0.066 1.1 1 2 2.2 1.927c1.123-0.072 1.961-1.073 1.889-2.187C59.712 123.6 58.8 122.7 57.7 122.7 C57.333 122.7 58.3 122.7 57.7 122.739z M58.683 125.746c-0.512 0.549-1.402 0.517-1.902-0.037 c-0.447-0.494-0.42-1.352 0.029-1.833c0.49-0.529 1.32-0.533 1.834-0.035C59.146 124.4 59.2 125.2 58.7 125.7 C58.443 126 58.9 125.5 58.7 125.746z M63.191 122.555l-0.723 2.8l-1.104-2.672l-0.727 0.057l-0.395 3.971l0.719-0.047 l0.26-2.515l0.998 2.415l0.658-0.045l0.65-2.534l0.607 2.447l0.715-0.058l-0.947-3.877L63.191 122.555z M64.976 122.4 l0.416 3.928l0.736-0.087l-0.414-3.911L64.976 122.375z M68.8 121.92l0.354 2.556l-2.014-2.333l-0.711 0.093l0.539 3.9 l0.732-0.104l-0.346-2.564l2.018 2.335l0.709-0.101l-0.535-3.897L68.8 121.92z M70.242 121.689l0.662 3.874l0.729-0.127 l-0.652-3.879L70.242 121.689z M74.169 123.46c-0.334-0.489-1.018-0.704-1.496-1.015c-0.176-0.111-0.352-0.313-0.139-0.502 c0.262-0.231 0.6 0 0.8 0.2l0.447-0.586c-0.443-0.345-0.992-0.564-1.535-0.3c-0.508 0.251-0.75 0.898-0.441 1.4 c0.27 0.4 0.8 0.7 1.2 0.896c0.186 0.1 0.5 0.2 0.5 0.443c0.096 0.254-0.121 0.461-0.348 0.5 c-0.248 0.051-0.496-0.084-0.746-0.384l-0.541 0.491c0.432 0.5 1.1 0.8 1.7 0.5 C74.328 124.8 74.6 124 74.2 123.46C74.08 123.3 74.3 123.6 74.2 123.46z M78.33 122.4 c-0.383-0.451-1.051-0.63-1.551-0.91c-0.201-0.113-0.395-0.354-0.121-0.529c0.27-0.172 0.6 0 0.8 0.187l0.408-0.61 c-0.467-0.317-1.02-0.509-1.551-0.207c-0.484 0.275-0.703 0.941-0.359 1.416c0.297 0.4 0.8 0.6 1.3 0.8 c0.201 0.1 0.5 0.2 0.6 0.41c0.113 0.251-0.104 0.47-0.324 0.544c-0.238 0.053-0.492-0.053-0.76-0.346l-0.506 0.5 c0.451 0.5 1.1 0.7 1.7 0.389C78.605 123.8 78.7 123 78.3 122.43C78.234 122.3 78.4 122.6 78.3 122.43z M79.423 119.539l-0.238 4.207l0.736-0.236l0.061-0.87l1.52-0.496l0.543 0.685l0.738-0.24l-2.637-3.283L79.423 119.539z M80.025 121.857l0.082-1.446l0.908 1.128L80.025 121.857z M83.759 121.428l-1.174-2.995l-0.697 0.27l1.432 3.663l1.711-0.67 l-0.26-0.664L83.759 121.428z M87.259 118.92l-1.014-2.126l-0.672 0.32c0.23 0.5 0.5 1 0.7 1.5 c0.227 0.5 0.9 1.4 0.2 1.771c-0.461 0.188-0.682-0.115-0.861-0.498c-0.117-0.244-0.23-0.489-0.348-0.732 c-0.236-0.507-0.477-1.015-0.717-1.521l-0.678 0.322c0.334 0.7 0.7 1.4 1 2.107c0.135 0.3 0.3 0.6 0.5 0.8 c0.35 0.3 0.9 0.4 1.3 0.185c0.432-0.179 0.742-0.48 0.848-0.947C87.621 119.7 87.4 119.3 87.3 118.92z M90.246 118.024c-0.328-0.675-1.104-0.778-1.75-0.994c-0.184-0.063-0.627-0.181-0.463-0.47c0.17-0.357 0.652-0.186 0.896-0.036 l0.313-0.665c-0.508-0.245-1.082-0.351-1.563 0.027c-0.439 0.343-0.557 1.034-0.146 1.452c0.355 0.4 0.9 0.5 1.4 0.6 c0.211 0.1 0.5 0.1 0.6 0.32c0.15 0.231-0.031 0.48-0.238 0.586c-0.229 0.087-0.494 0.02-0.803-0.229l-0.422 0.6 c0.48 0.4 1.1 0.5 1.6 0.211C90.234 119.2 90.5 118.6 90.2 118.024C90.173 117.9 90.4 118.3 90.2 118.024z"/><g><path fill="#F5BD47" d="M92.236 78.229h5.531v-5.986h-5.471c-0.301-1.355-0.809-2.624-1.486-3.779l3.814-3.813l-4.234-4.232 l-3.738 3.738c-1.174-0.736-2.467-1.287-3.852-1.586v-5.296h-5.988v5.552c-1.252 0.383-2.426 0.958-3.477 1.705l-4.115-4.113 l-4.232 4.232l4.42 4.422c-0.508 0.985-0.887 2.05-1.135 3.17h-6.43v5.986h6.49c0.262 1.1 0.6 2.1 1.2 3.085l-4.504 4.5 l4.232 4.233l4.258-4.256c1.016 0.7 2.1 1.2 3.3 1.606v5.792H82.8v-5.537c1.326-0.285 2.568-0.801 3.703-1.492 l3.887 3.887l4.232-4.233l-3.902-3.9C91.404 80.8 91.9 79.6 92.2 78.229z"/><path fill="#0D2240" d="M80.285 66.854c-4.43 0-8.023 3.696-8.023 8.262c0 4.6 3.6 8.3 8 8.3 c4.432 0 8.023-3.699 8.023-8.262C88.308 70.5 84.7 66.9 80.3 66.854z M80.164 80.264c-2.908 0-5.268-2.357-5.268-5.268 c0-2.911 2.359-5.27 5.268-5.27c2.912 0 5.3 2.4 5.3 5.27C85.433 77.9 83.1 80.3 80.2 80.264z"/><path fill="#0D2240" d="M83.279 75.06c0 1.585-1.342 2.873-2.994 2.873c-1.654 0-2.994-1.288-2.994-2.873 c0-1.59 1.34-2.874 2.994-2.874C81.937 72.2 83.3 73.5 83.3 75.06z"/></g><path fill="#7CA3DC" d="M69.359 17.75c0 6.714-5.514 12.158-13.084 12.158c-7.539 0-13.084-5.444-13.084-12.158 c0-6.713 6.086-12.158 13.084-12.158C63.501 5.6 69.4 11 69.4 17.75z"/><path fill="#FFFFFF" d="M68.564 13.659l-2.701 0.781c-0.568-1.564-1.305-3.012-2.184-4.323c0.563-0.367 1.111-0.778 1.586-1.169 c-0.264-0.233-0.535-0.457-0.818-0.668c-0.408 0.323-0.887 0.684-1.363 0.996c-0.869-1.164-1.939-2.264-3.004-3.153 c-0.766-0.218-1.561-0.372-2.379-0.455c1.645 1 3.2 2.5 4.5 4.156c-0.84 0.498-1.768 0.978-2.768 1.4 c-0.814-1.521-1.723-2.906-2.684-4.098c0.316-0.448 0.59-0.995 0.76-1.507c-0.365-0.033-0.736-0.05-1.111-0.054 c-0.094 0.247-0.207 0.523-0.342 0.741c-0.184-0.198-0.463-0.499-0.668-0.712c-0.467 0.03-0.926 0.083-1.381 0.2 c0.434 0.4 1 0.9 1.4 1.373c-0.48 0.477-1.082 0.867-1.785 1.124c-0.25-0.744-0.564-1.49-0.748-2.252 c-0.328 0.085-0.65 0.179-0.969 0.288c0.139 0.4 0.7 2.2 0.7 2.23C51.9 8.7 51.2 8.6 50.5 8.4 c0.049-0.531 0.168-1.182 0.273-1.688c-0.402 0.179-0.795 0.374-1.174 0.589c-0.037 0.241-0.084 0.56-0.104 0.7 c-0.15-0.075-0.387-0.221-0.557-0.333c-0.313 0.201-0.617 0.413-0.91 0.637c0.406 0.3 0.9 0.6 1.4 0.8 c-0.086 1.6 0 3.3 0.3 4.875c-1.105 0.151-2.16 0.238-3.166 0.264c0.018-1.962 0.488-4.005 1.156-5.655 c-0.615 0.505-1.182 1.063-1.689 1.666c-0.301 1.224-0.488 2.677-0.502 3.995c-0.545-0.012-1.191-0.06-1.707-0.11 c-0.109 0.326-0.205 0.657-0.285 0.995c0.617 0.1 1.4 0.1 2 0.148c0.074 1.6 0.3 3.1 0.8 4.747l-2.729 0.8 c0.092 0.3 0.2 0.7 0.3 0.978l2.734-0.803c0.539 1.5 1.2 2.9 2.1 4.136c-0.588 0.389-1.104 0.863-1.67 1.3 c0.258 0.2 0.5 0.5 0.8 0.681c0.418-0.351 0.965-0.78 1.447-1.104c0.912 1.2 2.1 2.4 3.2 3.4 c0.742 0.2 1.5 0.3 2.3 0.41c-1.689-1.058-3.375-2.593-4.66-4.334c0.842-0.511 1.77-1.01 2.783-1.471 c0.822 1.6 1.7 3 2.7 4.237c-0.295 0.463-0.521 1.049-0.664 1.582c0.35 0 0.7 0 1.1 0 c0.082-0.258 0.199-0.577 0.309-0.784c0.205 0.2 0.5 0.5 0.7 0.759c0.459-0.026 0.912-0.072 1.354-0.139 c-0.477-0.436-1.02-0.976-1.471-1.501c0.469-0.52 1.066-0.956 1.777-1.254l0.857 2.534c0.34-0.08 0.672-0.175 0.998-0.277 l-0.869-2.549c0.76-0.154 1.516-0.141 2.3 0.037c-0.053 0.65-0.195 1.494-0.316 2.119c0.4-0.167 0.791-0.351 1.166-0.552 c0.055-0.385 0.115-0.829 0.154-1.216c0.33 0.2 0.6 0.4 0.9 0.577c0.91-0.609 1.727-1.323 2.43-2.126 c0.426-1.522 0.625-3.081 0.625-4.657c0.654 0 1.3 0.1 1.8 0.114c0.094-0.33 0.172-0.666 0.236-1.007 c-0.67-0.085-1.373-0.13-2.121-0.139c-0.092-1.447-0.361-2.93-0.816-4.412l2.715-0.791C68.796 14.3 68.7 14 68.6 13.659z M64.865 14.731l-3.463 1.004c-0.439-1.248-0.941-2.436-1.496-3.563c1.051-0.469 2.02-0.973 2.904-1.504 C63.638 11.9 64.3 13.3 64.9 14.731z M61.591 20.308c-1.193 0.203-2.424 0.486-3.666 0.831l-1.01-3.024L60.74 17 C61.093 18.1 61.4 19.2 61.6 20.308z M60.408 16.023l-3.822 1.113L55.48 13.83c1.221-0.368 2.383-0.792 3.48-1.244 C59.496 13.7 60 14.8 60.4 16.023z M55.595 17.42l-3.805 1.103c-0.387-1.224-0.693-2.432-0.914-3.606 c1.172-0.198 2.379-0.465 3.609-0.801L55.595 17.42z M58.486 11.664c-1.051 0.434-2.164 0.836-3.338 1.188l-1.201-3.59 c0.82-0.303 1.537-0.75 2.117-1.314C56.923 9 57.7 10.3 58.5 11.664z M52.951 9.533l1.205 3.6 c-1.176 0.323-2.33 0.575-3.461 0.767c-0.219-1.468-0.277-2.916-0.277-4.397C50.865 9.6 52.1 9.7 53 9.533z M49.849 15.074c0.232 1.2 0.6 2.5 1 3.733l-3.459 1.002c-0.467-1.505-0.727-3.004-0.795-4.459 C47.589 15.3 48.7 15.2 49.8 15.074z M49.603 24.659c-0.771-1.171-1.426-2.468-1.938-3.865l3.461-1 c0.404 1.2 0.9 2.3 1.4 3.323C51.455 23.6 50.5 24.1 49.6 24.659z M52.119 19.504l3.801-1.104l1.02 3 c-1.225 0.378-2.395 0.801-3.486 1.272C52.964 21.7 52.5 20.6 52.1 19.504z M56.369 27.4 c-0.871-1.119-1.705-2.399-2.455-3.819c1.053-0.442 2.174-0.852 3.346-1.216l1.211 3.61C57.648 26.3 56.9 26.8 56.4 27.4 z M62.105 25.67c-0.891-0.174-1.764-0.146-2.648 0.034l-1.197-3.582c1.193-0.339 2.371-0.601 3.52-0.802 C62.009 22.8 62.1 25.5 62.1 25.67z M61.73 16.715l3.455-1.002c0.428 1.4 0.7 2.8 0.8 4.1 c-1.064 0.03-2.186 0.123-3.354 0.293C62.39 19 62.1 17.9 61.7 16.715z M64.812 26.985c-0.5-0.425-1.07-0.761-1.688-0.999 c0.059-1.618-0.072-3.229-0.326-4.828c1.115-0.153 2.189-0.245 3.207-0.274C66.005 23 65.6 25.2 64.8 26.985z"/><path fill="#F5BD47" d="M59.57 34.689h-2.027v-3.333c1.621-0.144 3.24-0.53 4.779-1.196l-0.375-1.389 c-1.691 0.726-3.605 1.136-5.672 1.136c-7.539 0-13.084-5.444-13.084-12.158c0-6.525 5.748-11.848 12.492-12.144l-0.385-1.427 c-2.35 0.155-4.701 0.841-6.84 2.089c-6.879 4.053-8.975 12.478-4.674 18.837c2.484 3.7 6.6 5.8 10.9 6.25v3.333H52.63 v1.929h-8.039v3.449h23.016v-3.449H59.57V34.689z"/></g></svg>